<svg width="1106" height="129" viewBox="0 0 1106 129" fill="none" xmlns="http://www.w3.org/2000/svg">
<path d="M1076.47 101.25C1066.57 101.25 1058.47 98.5501 1053.67 94.5001C1050.22 87.4501 1049.77 78.7501 1054.87 78.7501C1056.52 78.7501 1057.72 79.6501 1058.47 81.9001C1062.22 92.4001 1068.37 97.0501 1078.27 97.0501C1087.87 97.0501 1092.37 92.5501 1092.37 86.2501C1092.37 77.2501 1083.82 75.1501 1074.52 72.0001C1063.27 68.2501 1052.32 62.8501 1052.32 50.7001C1052.32 38.7001 1063.12 31.3501 1078.57 31.3501C1087.27 31.3501 1094.92 33.7501 1099.72 37.2001C1103.17 44.2501 1103.62 52.8001 1098.52 52.8001C1096.87 52.8001 1095.82 51.9001 1095.07 49.8001C1091.47 39.4501 1085.17 35.2501 1076.92 35.2501C1068.97 35.2501 1064.92 39.1501 1064.92 45.4501C1064.92 53.5501 1071.22 56.7001 1079.92 59.7001C1090.87 63.4501 1105.57 67.3501 1105.57 81.0001C1105.57 93.6001 1093.12 101.25 1076.47 101.25Z" fill="#1E1E1C"/>
<path d="M974.252 96.7499C981.302 96.1499 983.852 94.1999 983.852 88.4999V17.6999C983.852 10.9499 982.052 8.5499 974.102 9.2999V5.8499L991.802 2.0999C995.252 1.3499 997.352 2.9999 997.352 6.5999V60.1499C997.352 63.2999 999.302 64.4999 1001.4 62.5499L1023.6 42.7499C1026.6 40.0499 1025.1 36.8999 1017.6 36.1499V32.6999H1044V36.1499C1036.95 36.8999 1034.85 39.2999 1030.2 43.3499L1014.6 56.9999L1037.85 89.5499C1042.2 95.5499 1044.3 95.9999 1050.3 96.7499V100.35H1020V96.7499C1025.55 95.9999 1025.85 94.4999 1023 90.4499L1008.9 70.6499C1006.8 67.9499 1005.6 67.1999 1003.5 67.1999C1000.05 67.1999 997.352 71.0999 997.352 77.5499V88.4999C997.352 94.1999 999.902 96.1499 1006.95 96.7499V100.35H974.252V96.7499Z" fill="#1E1E1C"/>
<path d="M914.482 96.7501C921.532 96.1501 924.082 94.2001 924.082 88.5001V47.2501C924.082 40.5001 922.282 38.1001 914.332 38.8501V35.4001L932.032 31.6501C935.482 30.9001 937.582 32.5501 937.582 36.1501V40.2001C937.582 42.0001 939.082 42.7501 940.882 40.9501C943.282 38.4001 949.282 31.3501 959.782 31.3501C969.982 31.3501 974.032 37.9501 974.032 43.8001C974.032 49.3501 970.732 53.2501 965.332 53.2501C955.132 53.2501 962.332 39.1501 951.832 39.1501C944.032 39.1501 937.582 47.5501 937.582 66.0001V88.5001C937.582 94.2001 940.132 96.1501 947.632 96.7501V100.35H914.482V96.7501Z" fill="#1E1E1C"/>
<path d="M877.038 101.25C858.738 101.25 842.238 88.3501 842.238 66.4501C842.238 44.4001 858.738 31.3501 877.188 31.3501C895.488 31.3501 911.988 44.2501 911.988 66.1501C911.988 88.2001 895.488 101.25 877.038 101.25ZM856.938 60.7501C856.938 80.1001 866.388 96.6001 880.488 96.6001C890.238 96.6001 897.288 88.8001 897.288 71.8501C897.288 52.3501 887.838 35.8501 873.738 35.8501C863.838 35.8501 856.938 43.8001 856.938 60.7501Z" fill="#1E1E1C"/>
<path d="M745.141 49.8002C741.541 40.6502 739.591 38.5502 733.141 36.1502V32.7002H764.041V36.1502C755.941 38.5502 755.641 40.5002 759.241 49.8002L771.091 81.0002C773.041 86.2502 774.691 86.2502 776.491 81.0002L781.141 67.8002C784.291 58.8002 783.991 52.5002 781.891 46.9502C779.791 41.1002 777.241 38.4002 771.241 36.1502V32.7002H802.141V36.1502C794.041 38.5502 793.741 40.5002 797.341 49.8002L809.191 81.0002C811.141 86.2502 812.791 86.2502 814.591 81.0002L820.141 65.2502C828.841 40.2002 826.891 38.5502 818.041 36.1502V32.7002H845.341V36.1502C836.641 38.5502 834.241 40.8002 830.641 49.8002L811.291 100.35H802.591L787.891 61.9502L773.191 100.35H764.491L745.141 49.8002Z" fill="#1E1E1C"/>
<path d="M669.803 101.25C668.603 101.25 667.703 100.35 667.703 98.9999V17.6999C667.703 10.9499 665.903 8.5499 657.953 9.2999V5.8499L675.653 2.0999C679.103 1.3499 681.203 2.9999 681.203 6.5999V38.5499C681.203 40.1999 682.403 40.9499 684.053 39.2999C686.903 36.1499 695.003 31.3499 704.903 31.3499C721.253 31.3499 734.603 44.3999 734.603 65.0999C734.603 88.4999 718.703 101.25 702.203 101.25C689.603 101.25 682.403 93.8999 678.203 93.8999C674.153 93.8999 673.103 101.25 669.803 101.25ZM681.203 73.4999C681.203 90.4499 693.053 96.8999 702.203 96.8999C713.903 96.8999 720.953 86.6999 720.953 71.3999C720.953 53.9999 711.653 40.1999 698.003 40.1999C690.653 40.1999 681.203 43.9499 681.203 58.9499V73.4999Z" fill="#1E1E1C"/>
<path d="M628.188 101.25C609.438 101.25 593.238 88.2001 593.238 66.3001C593.238 43.8001 609.738 31.3501 628.638 31.3501C643.938 31.3501 653.838 39.6001 653.838 51.0001C653.838 61.5001 645.588 64.6501 625.488 65.5501L612.288 66.3001C609.438 66.4501 608.388 67.8001 608.388 71.1001C608.388 82.2001 619.488 92.5501 634.788 92.5501C641.238 92.5501 648.438 90.7501 653.538 84.1501L656.388 86.5501C653.538 91.8001 644.238 101.25 628.188 101.25ZM607.638 56.7001C607.638 61.6501 609.288 62.4001 612.588 62.2501L622.788 61.9501C636.438 61.5001 640.338 59.1001 640.338 51.1501C640.338 43.0501 636.138 35.8501 625.938 35.8501C613.338 35.8501 607.638 46.9501 607.638 56.7001Z" fill="#1E1E1C"/>
<path d="M496.141 49.8002C492.541 40.6502 490.591 38.5502 484.141 36.1502V32.7002H515.041V36.1502C506.941 38.5502 506.641 40.5002 510.241 49.8002L522.091 81.0002C524.041 86.2502 525.691 86.2502 527.491 81.0002L532.141 67.8002C535.291 58.8002 534.991 52.5002 532.891 46.9502C530.791 41.1002 528.241 38.4002 522.241 36.1502V32.7002H553.141V36.1502C545.041 38.5502 544.741 40.5002 548.341 49.8002L560.191 81.0002C562.141 86.2502 563.791 86.2502 565.591 81.0002L571.141 65.2502C579.841 40.2002 577.891 38.5502 569.041 36.1502V32.7002H596.341V36.1502C587.641 38.5502 585.241 40.8002 581.641 49.8002L562.291 100.35H553.591L538.891 61.9502L524.191 100.35H515.491L496.141 49.8002Z" fill="#1E1E1C"/>
<path d="M416.948 101.25C398.648 101.25 382.148 88.3501 382.148 66.4501C382.148 44.4001 398.648 31.3501 417.098 31.3501C435.398 31.3501 451.898 44.2501 451.898 66.1501C451.898 88.2001 435.398 101.25 416.948 101.25ZM396.848 60.7501C396.848 80.1001 406.298 96.6001 420.398 96.6001C430.148 96.6001 437.198 88.8001 437.198 71.8501C437.198 52.3501 427.748 35.8501 413.648 35.8501C403.748 35.8501 396.848 43.8001 396.848 60.7501Z" fill="#1E1E1C"/>
<path d="M347.566 101.25C328.816 101.25 312.016 88.5001 312.016 66.4501C312.016 43.8001 329.716 31.3501 348.616 31.3501C365.266 31.3501 375.016 40.9501 375.016 49.3501C375.016 53.7001 372.316 57.0001 367.666 57.0001C363.616 57.0001 361.066 54.3001 360.616 49.8001C359.866 43.5001 356.566 35.8501 345.766 35.8501C333.466 35.8501 325.966 45.3001 325.966 60.9001C325.966 80.7001 339.166 92.4001 355.366 92.4001C361.666 92.4001 368.116 90.6001 373.066 83.2501L375.916 85.5001C373.366 91.8001 363.766 101.25 347.566 101.25Z" fill="#1E1E1C"/>
<path d="M273.219 96.75C280.419 96.15 282.969 94.2 282.969 88.5V47.25C282.969 40.5 281.169 38.1 273.369 38.85V35.4L290.919 31.65C294.369 30.9 296.469 32.55 296.469 36.15V88.5C296.469 94.2 299.019 96.15 306.069 96.75V100.35H273.219V96.75ZM279.969 8.25C279.969 3.45 283.569 0 288.219 0C292.719 0 296.469 3.45 296.469 8.25C296.469 13.05 292.719 16.5 288.219 16.5C283.569 16.5 279.969 13.05 279.969 8.25Z" fill="#1E1E1C"/>
<path d="M251.18 101.1C240.38 101.1 233.18 95.5498 233.18 82.7998V42.4498C233.18 38.3998 231.98 37.4998 229.73 37.4998H222.68V34.0498C231.53 30.8998 236.63 26.0998 241.13 18.1498C241.73 17.0998 242.48 16.7998 243.53 16.7998H245.03C246.08 16.7998 246.83 17.5498 246.83 18.5998L246.68 28.7998C246.68 31.7998 247.73 32.6998 254.48 32.6998H265.73V38.3998L254.48 37.7998C247.73 37.4998 246.68 38.6998 246.68 42.7498V81.1498C246.68 89.9998 248.18 95.5498 255.53 95.5498C258.98 95.5498 261.68 94.3498 263.63 92.5498C265.58 94.1998 265.43 95.8498 264.68 96.4498C261.83 99.1498 257.48 101.1 251.18 101.1Z" fill="#1E1E1C"/>
<path d="M160.056 96.7501C167.106 96.1501 169.656 94.2001 169.656 88.5001V47.2501C169.656 40.5001 167.856 38.1001 159.906 38.8501V35.4001L177.606 31.6501C181.056 30.9001 183.156 32.5501 183.156 36.1501V40.2001C183.156 42.0001 184.656 42.7501 186.456 40.9501C188.856 38.4001 194.856 31.3501 205.356 31.3501C215.556 31.3501 219.606 37.9501 219.606 43.8001C219.606 49.3501 216.306 53.2501 210.906 53.2501C200.706 53.2501 207.906 39.1501 197.406 39.1501C189.606 39.1501 183.156 47.5501 183.156 66.0001V88.5001C183.156 94.2001 185.706 96.1501 193.206 96.7501V100.35H160.056V96.7501Z" fill="#1E1E1C"/>
<path d="M119.613 101.25C101.312 101.25 84.8125 88.3501 84.8125 66.4501C84.8125 44.4001 101.313 31.3501 119.763 31.3501C138.063 31.3501 154.562 44.2501 154.562 66.1501C154.562 88.2001 138.063 101.25 119.613 101.25ZM99.5125 60.7501C99.5125 80.1001 108.963 96.6001 123.063 96.6001C132.813 96.6001 139.863 88.8001 139.863 71.8501C139.863 52.3501 130.413 35.8501 116.312 35.8501C106.413 35.8501 99.5125 43.8001 99.5125 60.7501Z" fill="#1E1E1C"/>
<path d="M0.15 125.4C7.2 124.65 9.75 122.7 9.75 117V47.2501C9.75 40.5001 7.95 38.1001 0 38.8501V35.4001L17.7 31.6501C21.15 30.9001 23.25 32.5501 23.25 36.4501V38.4001C23.25 40.2001 24.45 41.1001 26.1 39.3001C28.95 36.1501 37.05 31.3501 46.95 31.3501C63.3 31.3501 76.65 44.4001 76.65 65.4001C76.65 88.5001 60.75 101.25 44.25 101.25C34.2 101.25 28.8 96.4501 26.1 96.4501C24.15 96.4501 23.25 98.2501 23.25 103.35V117C23.25 122.7 25.8 124.65 33.6 125.4V128.85H0.15V125.4ZM23.25 73.5001C23.25 90.6001 35.1 96.9001 44.25 96.9001C55.95 96.9001 63 86.7001 63 71.4001C63 54.0001 53.7 40.2001 40.05 40.2001C32.7 40.2001 23.25 43.9501 23.25 58.9501V73.5001Z" fill="#1E1E1C"/>
</svg>
