<svg width="1024" height="1024" viewBox="0 0 1024 1024" fill="none" xmlns="http://www.w3.org/2000/svg">
<rect width="1024" height="1024" rx="268" fill="#C92A08"/>
<path d="M518.786 450.313C505.457 416.434 498.237 408.659 474.355 399.773V386.999H588.765V399.773C558.774 408.659 557.663 415.879 570.992 450.313L614.868 565.833C622.088 585.271 628.197 585.271 634.862 565.833L652.079 516.959C663.742 483.636 662.631 460.31 654.855 439.76C647.08 418.1 637.639 408.103 615.423 399.773V386.999H729.832V399.773C699.842 408.659 698.731 415.879 712.06 450.313L755.935 565.833C763.155 585.271 769.265 585.271 775.929 565.833L796.479 507.517C828.691 414.768 821.471 408.659 788.703 399.773V386.999H889.783V399.773C857.571 408.659 848.685 416.99 835.355 450.313L763.711 637.477H731.499L677.071 495.299L622.643 637.477H590.431L518.786 450.313Z" fill="#F8F8F8"/>
<path d="M179.989 730.226C206.092 727.449 215.534 720.229 215.534 699.125V440.871C215.534 415.878 208.869 406.992 179.434 409.769V396.995L244.969 383.111C257.743 380.334 265.518 386.443 265.518 400.883V408.103C265.518 414.768 269.961 418.1 276.071 411.435C286.623 399.772 316.614 382 353.269 382C413.806 382 463.235 430.318 463.235 508.072C463.235 593.602 404.364 640.809 343.272 640.809C306.061 640.809 286.067 623.037 276.071 623.037C268.851 623.037 265.518 629.702 265.518 648.585V699.125C265.518 720.229 274.96 727.449 303.84 730.226V743H179.989V730.226ZM265.518 538.063C265.518 601.377 309.394 624.703 343.272 624.703C386.592 624.703 412.695 586.937 412.695 530.288C412.695 465.863 378.261 414.768 327.721 414.768C300.507 414.768 265.518 428.652 265.518 484.191V538.063Z" fill="#F8F8F8"/>
</svg>
