<svg viewBox="0 0 1080 1080" xmlns="http://www.w3.org/2000/svg"><path d="M0 100C0 44.7715 44.7715 0 100 0H980C1035.23 0 1080 44.7715 1080 100V980C1080 1035.23 1035.23 1080 980 1080H100C44.7715 1080 0 1035.23 0 980V100Z" fill="#C92A08"/><path d="M526.957 489.35C516.157 461.9 510.307 455.6 490.957 448.4V438.05H583.657V448.4C559.357 455.6 558.457 461.45 569.257 489.35L604.807 582.95C610.657 598.7 615.607 598.7 621.007 582.95L634.957 543.35C644.407 516.35 643.507 497.45 637.207 480.8C630.907 463.25 623.257 455.15 605.257 448.4V438.05H697.957V448.4C673.657 455.6 672.757 461.45 683.557 489.35L719.107 582.95C724.957 598.7 729.907 598.7 735.307 582.95L751.957 535.7C778.057 460.55 772.207 455.6 745.657 448.4V438.05H827.557V448.4C801.457 455.6 794.257 462.35 783.457 489.35L725.407 641H699.307L655.207 525.8L611.107 641H585.007L526.957 489.35Z" fill="#F8F8F8"/><path d="M252.45 716.15C273.6 713.9 281.25 708.05 281.25 690.95V481.7C281.25 461.45 275.85 454.25 252 456.5V446.15L305.1 434.9C315.45 432.65 321.75 437.6 321.75 449.3V455.15C321.75 460.55 325.35 463.25 330.3 457.85C338.85 448.4 363.15 434 392.85 434C441.9 434 481.95 473.15 481.95 536.15C481.95 605.45 434.25 643.7 384.75 643.7C354.6 643.7 338.4 629.3 330.3 629.3C324.45 629.3 321.75 634.7 321.75 650V690.95C321.75 708.05 329.4 713.9 352.8 716.15V726.5H252.45V716.15ZM321.75 560.45C321.75 611.75 357.3 630.65 384.75 630.65C419.85 630.65 441 600.05 441 554.15C441 501.95 413.1 460.55 372.15 460.55C350.1 460.55 321.75 471.8 321.75 516.8V560.45Z" fill="#F8F8F8"/></svg>

